<svg width="15" height="14" viewBox="0 0 15 14" fill="none" xmlns="http://www.w3.org/2000/svg">
<g clip-path="url(#clip0_1_29)">
<path d="M7.46672 6.53333C9.01303 6.53333 10.2667 5.07081 10.2667 3.26669C10.2667 1.46252 9.85509 0 7.46672 0C5.07836 0 4.66669 1.46252 4.66669 3.26669C4.66669 5.07081 5.92034 6.53333 7.46672 6.53333Z" fill="#AD1719"/>
<path d="M0.368537 13.2988C0.367257 13.2555 0.367897 13.1451 0.368537 13.2988V13.2988Z" fill="#AD1719"/>
<path d="M14.5646 13.4189C14.5653 13.127 14.5667 13.3768 14.5646 13.4189V13.4189Z" fill="#AD1719"/>
<path d="M12.1281 11.1095C12.0824 7.98651 11.7053 7.09663 8.81969 6.53333C8.81969 6.53333 8.4135 7.09317 7.46676 7.09317C6.52002 7.09317 6.11376 6.53333 6.11376 6.53333C3.25968 7.09049 2.85967 7.96717 2.80707 11.008C2.80276 11.2564 2.80076 11.2694 2.79999 11.2406C2.80017 11.2946 2.80037 11.3945 2.80037 11.5687C2.80037 11.5687 3.48736 13.0667 7.46676 13.0667C11.4461 13.0667 12.1331 11.5687 12.1331 11.5687C12.1331 11.4568 12.1332 11.3789 12.1333 11.326C12.1326 11.3438 12.131 11.3093 12.1281 11.1095Z" fill="#AD1719"/>
</g>
<defs>
<clipPath id="clip0_1_29">
<rect width="14.9333" height="14" fill="white"/>
</clipPath>
</defs>
</svg>
