<svg width="20" height="20" viewBox="0 0 20 20" fill="none" xmlns="http://www.w3.org/2000/svg">
<path d="M10.0001 0C5.40534 0 1.66675 3.7382 1.66675 8.33332C1.66675 10.57 2.54241 12.6709 4.12933 14.2456L9.70386 19.8763C9.78198 19.9556 9.88859 20 10.0001 20C10.1116 20 10.2182 19.9557 10.2963 19.8763L15.8684 14.2484C17.4578 12.6709 18.3334 10.57 18.3334 8.33332C18.3334 3.7382 14.5948 0 10.0001 0ZM10.0001 11.6667C8.16167 11.6667 6.66675 10.1713 6.66675 8.33336C6.66675 6.49535 8.16167 5 10.0001 5C11.8385 5 13.3334 6.49535 13.3334 8.33332C13.3334 10.1713 11.8385 11.6667 10.0001 11.6667Z" fill="#AD1719"/>
</svg>
