<svg width="19" height="16" viewBox="0 0 19 16" fill="none" xmlns="http://www.w3.org/2000/svg">
<g clip-path="url(#clip0_1_53)">
<path d="M1.99413 6.25327H11.1308C11.4543 6.25327 11.7168 5.9884 11.7168 5.66144C11.7168 5.33448 11.4543 5.06962 11.1308 5.06962H1.99413L5.04109 1.97873C5.27019 1.74728 5.27019 1.37287 5.04109 1.142C4.81197 0.910551 4.44107 0.910551 4.21254 1.142L0.170083 5.24305C-0.0555239 5.471 -0.0578618 5.85247 0.170083 6.08036L4.21312 10.1814C4.44224 10.4129 4.81313 10.4123 5.04167 10.1814C5.27078 9.95057 5.27078 9.57556 5.04167 9.34469L1.99413 6.25327Z" fill="black"/>
<path d="M18.5799 9.92018L14.5368 5.81909C14.3077 5.58764 13.9368 5.58822 13.7083 5.81909C13.4792 6.04995 13.4792 6.42494 13.7083 6.65581L16.7553 9.7467H7.61853C7.29507 9.7467 7.03259 10.0116 7.03259 10.3385C7.03259 10.6655 7.29512 10.9303 7.61853 10.9303H16.7553L13.7083 14.0213C13.4792 14.2527 13.4792 14.6271 13.7083 14.858C13.9374 15.0894 14.3083 15.0894 14.5368 14.858L18.5793 10.7569C18.8055 10.5296 18.8078 10.1481 18.5799 9.92018Z" fill="black"/>
</g>
<defs>
<clipPath id="clip0_1_53">
<rect width="18.75" height="15" fill="white" transform="translate(0 0.5)"/>
</clipPath>
</defs>
</svg>
